<?xml version="1.0" encoding="UTF-8"?>
<svg version="1.1" xmlns="http://www.w3.org/2000/svg" width="500" height="500">
<path d="M0 0 C13.87463495 1.7497685 13.87463495 1.7497685 19 5 C20.010625 5.61875 21.02125 6.2375 22.0625 6.875 C29.37670979 12.16613049 32.84651734 17.830209 34.50390625 26.6953125 C35.01144209 30.99973035 35.20290772 34.78982298 34 39 C33.9175 39.86625 33.835 40.7325 33.75 41.625 C33 44 33 44 30.4375 45.8125 C29.2309375 46.4003125 29.2309375 46.4003125 28 47 C28.495 49.475 28.495 49.475 29 52 C27.02 52.495 27.02 52.495 25 53 C25 54.32 25 55.64 25 57 C24.0409375 57.1546875 24.0409375 57.1546875 23.0625 57.3125 C22.381875 57.539375 21.70125 57.76625 21 58 C20.67 58.99 20.34 59.98 20 61 C18.35 61 16.7 61 15 61 C15 61.99 15 62.98 15 64 C11.84747417 64.2702165 10.39770584 64.27618461 7.75 62.4375 C3.78716183 60.36601641 0.27025087 60.93643564 -4 62 C-4.99 62.66 -5.98 63.32 -7 64 C-10.58988752 63.6221171 -13.69657291 62.41575447 -17 61 C-17 60.01 -17 59.02 -17 58 C-17.7425 57.7525 -18.485 57.505 -19.25 57.25 C-22.32810608 55.85086087 -23.97023779 54.70634961 -26 52 C-26.25 48.75 -26.25 48.75 -26 46 C-27.32 45.34 -28.64 44.68 -30 44 C-29.979375 43.05125 -29.95875 42.1025 -29.9375 41.125 C-29.77448174 38.09333717 -29.77448174 38.09333717 -31 36 C-31.06806402 26.51187579 -29.90410696 18.27592667 -23.375 11.125 C-22.59125 10.42375 -21.8075 9.7225 -21 9 C-20.34 8.01 -19.68 7.02 -19 6 C-13.50812894 3.23611718 -8.07676839 1.0291562 -2 3 C-1.34 2.01 -0.68 1.02 0 0 Z M-9 7 C-9.0677946 10.93208708 -9.08470254 14.49178476 -8.4375 18.375 C-8 21 -8 21 -9 23 C-9.4136968 27.65408901 -8.81070393 30.25239476 -6 34 C-2.3078813 36.46141247 0.71354805 36.68650207 5 36 C11.79984273 31.86096529 12.74132523 25.90883162 14.625 18.5625 C14.74875 18.046875 14.8725 17.53125 15 17 C12.525 16.505 12.525 16.505 10 16 C9.34 18.64 8.68 21.28 8 24 C-0.57142857 25.42857143 -0.57142857 25.42857143 -4 23 C-4 22.01 -4 21.02 -4 20 C-2.35 19.67 -0.7 19.34 1 19 C1.9764907 14.38435986 1.9764907 14.38435986 1.3125 9.8125 C0.13923988 7.79760396 0.13923988 7.79760396 -2.1640625 7.390625 C-3.38222656 7.32101563 -3.38222656 7.32101563 -4.625 7.25 C-5.85089844 7.16492188 -5.85089844 7.16492188 -7.1015625 7.078125 C-7.72804687 7.05234375 -8.35453125 7.0265625 -9 7 Z M-18 14 C-17 17 -17 17 -17 17 Z M19.3125 24.625 C17.10081774 27.54608978 15.93177805 30.44230198 15 34 C17.87793751 32.70989008 19.96183917 31.42638194 22 29 C22.33 28.01 22.66 27.02 23 26 C25.0625 24.8125 25.0625 24.8125 27 24 C27 23.34 27 22.68 27 22 C23.07808735 21.32767212 22.22822587 21.7770817 19.3125 24.625 Z M-25 34 C-25 34.66 -25 35.32 -25 36 C-21.71303767 36.79953138 -20.28976808 37.09658936 -17 36 C-17.33 34.68 -17.66 33.36 -18 32 C-21.10551666 32 -22.35261084 32.5393715 -25 34 Z " fill="#FAF8FB" transform="translate(155,214)"/>
<path d="M0 0 C22 0 22 0 28 3 C31.14142975 6.32094002 33.07869639 9.86919725 35 14 C35.49306641 13.22076172 35.49306641 13.22076172 35.99609375 12.42578125 C40.44962812 5.89634468 45.53150627 2.48949791 53 0 C58.68081669 -0.43763329 64.11324071 -0.66271524 69.4375 1.5625 C74.17713455 3.47498412 76.14495181 2.68841732 80.7578125 0.9765625 C87.96486501 -1.19423645 95.55735417 -1.10174256 102.4375 2.0625 C109.2711194 6.05617368 112.76075653 10.26377266 115.0625 17.875 C116.6407516 25.30206637 114.73486763 29.77810297 111.25 36.25 C106.24421213 42.36818517 100.58614592 45.39584112 92.65234375 46.25390625 C86.84589433 46.53211325 83.11143626 45.32928704 77.95703125 42.765625 C75.9218996 41.75502654 75.9218996 41.75502654 73.375 42.625 C72.59125 43.07875 71.8075 43.5325 71 44 C62.18485107 47.11122904 54.70095988 46.95088104 46.19140625 43.12890625 C40.65933726 40.27905253 37.47775208 36.69768796 35 31 C34.17568939 28.34078328 33.57473851 25.73000793 33 23 C32.51789063 23.433125 32.03578125 23.86625 31.5390625 24.3125 C30.90742188 24.869375 30.27578125 25.42625 29.625 26 C28.99851563 26.556875 28.37203125 27.11375 27.7265625 27.6875 C26 29 26 29 24 29 C27.21530757 35.42909908 27.21530757 35.42909908 31.8125 40.875 C32.534375 41.57625 33.25625 42.2775 34 43 C34 43.99 34 44.98 34 46 C29.90392356 46.47036285 26.07885635 46.68870742 22 46 C19.44963178 43.74257948 18.40659651 41.05386543 17 38 C16.06678718 36.7311357 15.10927505 35.47967695 14.125 34.25 C13.42375 33.1775 12.7225 32.105 12 31 C12.33 29.68 12.66 28.36 13 27 C15.97 26.34 18.94 25.68 22 25 C22.22397733 22.95999027 22.42848537 20.91783811 22.625 18.875 C22.74101562 17.73804688 22.85703125 16.60109375 22.9765625 15.4296875 C23.00136477 11.80028845 22.44608028 9.31516364 21 6 C18.70370006 4.85185003 16.92301914 4.69230191 14.375 4.4375 C13.55773437 4.35371094 12.74046875 4.26992187 11.8984375 4.18359375 C11.27195313 4.12300781 10.64546875 4.06242188 10 4 C10.03029297 4.70382813 10.06058594 5.40765625 10.09179688 6.1328125 C10.65586094 19.4273685 11.18092578 32.69190388 11 46 C7.37 46 3.74 46 0 46 C0 30.82 0 15.64 0 0 Z M5 3 C3.96884721 6.26913624 4.0361016 8.86041348 4.4375 12.25 C4.53933594 13.14203125 4.64117187 14.0340625 4.74609375 14.953125 C4.82988281 15.62859375 4.91367188 16.3040625 5 17 C5.66 17 6.32 17 7 17 C7 12.71 7 8.42 7 4 C6.34 3.67 5.68 3.34 5 3 Z M47.3125 9.875 C42.96616289 15.74842853 42.12026521 20.78617472 43 28 C44.81184188 33.92966432 47.99273894 37.48426351 53 41 C56.61930698 42.20643566 59.19231005 42.32268559 63 42 C66.3832553 40.1353694 66.3832553 40.1353694 69 38 C68.51341266 35.24267176 67.91062728 32.75816794 66.9375 30.125 C65.04683519 23.82278397 66.08535425 18.99619153 68.34375 13.015625 C69.15479302 10.87785863 69.15479302 10.87785863 69 8 C67.06176821 5.60028446 66.00609963 5.00203321 63 4 C55.71202341 3.52980796 52.44230106 4.38730584 47.3125 9.875 Z M80 8 C80.49309807 10.21894132 81.04144683 12.08289367 82.0625 14.125 C83.94978599 19.91267705 83.73196463 25.74408911 81.4375 31.375 C79.83692058 35.29852843 79.83692058 35.29852843 81 39 C85.35882682 41.90588455 88.82009506 42.63612868 94 42 C99.35935066 40.00713221 102.21583126 37.03292042 105 32 C106.84215805 26.47352586 107.03316553 19.9641474 105.10546875 14.43359375 C103.92651319 12.0299623 103.92651319 12.0299623 102 9 C101.34 9 100.68 9 100 9 C100 8.34 100 7.68 100 7 C92.4544074 2.47264444 86.78057762 2.5755379 80 8 Z M110 17 C110 20.3 110 23.6 110 27 C112.56687367 23.1496895 111.83288724 21.41430237 111 17 C110.67 17 110.34 17 110 17 Z M5 24 C5.33 25.65 5.66 27.3 6 29 C6.33 29 6.66 29 7 29 C7 27.35 7 25.7 7 24 C6.34 24 5.68 24 5 24 Z M78 27 C79 29 79 29 79 29 Z M18 31 C18.66 31.66 19.32 32.32 20 33 C20 32.34 20 31.68 20 31 C19.34 31 18.68 31 18 31 Z M5 33 C4.67 35.97 4.34 38.94 4 42 C4.99 42.33 5.98 42.66 7 43 C7.04125 41.72125 7.0825 40.4425 7.125 39.125 C7.14820313 38.40570313 7.17140625 37.68640625 7.1953125 36.9453125 C7.18331689 34.76136355 7.18331689 34.76136355 5 33 Z M20 33 C20.33 33.99 20.66 34.98 21 36 C21 35.01 21 34.02 21 33 C20.67 33 20.34 33 20 33 Z M22 36 C23.24976756 39.65316671 23.67098753 40.78065836 27 43 C25.75023244 39.34683329 25.32901247 38.21934164 22 36 Z " fill="#F8DDF7" transform="translate(200,223)"/>
<path d="M0 0 C6.8336194 3.99367368 10.32325653 8.20127266 12.625 15.8125 C14.2032516 23.23956637 12.29736763 27.71560297 8.8125 34.1875 C4.37610742 39.6097576 -0.48645625 42.64154269 -7.4375 43.9375 C-13.76822187 44.5102309 -18.94930466 44.3238333 -24.4375 40.9375 C-25.375 38.25 -25.375 38.25 -25.4375 35.9375 C-26.4275 35.9375 -27.4175 35.9375 -28.4375 35.9375 C-28.4375 36.5975 -28.4375 37.2575 -28.4375 37.9375 C-34.89337516 42.38488067 -41.30229242 43.85342884 -49.109375 42.4609375 C-53.49185964 41.19085437 -53.49185964 41.19085437 -55.4375 39.9375 C-56.1796875 37.82421875 -56.1796875 37.82421875 -56.4375 35.9375 C-52.4375 37.9375 -52.4375 37.9375 -50.60546875 38.98828125 C-46.70794523 40.69476452 -42.60837362 40.40393481 -38.4375 39.9375 C-35.5120356 38.5865712 -35.5120356 38.5865712 -33.4375 36.9375 C-32.7775 36.9375 -32.1175 36.9375 -31.4375 36.9375 C-32.24725364 35.12377137 -33.06038021 33.31154826 -33.875 31.5 C-34.32746094 30.49066406 -34.77992188 29.48132813 -35.24609375 28.44140625 C-36.21198202 26.0514529 -36.21198202 26.0514529 -37.4375 24.9375 C-37.87340636 19.70662364 -36.94190872 15.8473231 -35.09375 10.953125 C-34.28270698 8.81535863 -34.28270698 8.81535863 -34.4375 5.9375 C-37.96001672 2.96537652 -41.0657334 2.45996122 -45.515625 2.65234375 C-49.80503197 3.28878015 -51.999637 5.42863219 -54.75 8.625 C-55.306875 9.388125 -55.86375 10.15125 -56.4375 10.9375 C-57.0975 10.6075 -57.7575 10.2775 -58.4375 9.9375 C-55.92471307 5.74952179 -53.94850332 2.96745149 -49.4375 0.9375 C-48.1175 0.9375 -46.7975 0.9375 -45.4375 0.9375 C-45.4375 0.2775 -45.4375 -0.3825 -45.4375 -1.0625 C-39.86428705 -1.536816 -36.3545826 -0.41554611 -31.35546875 2.0625 C-29.48559084 3.075853 -29.48559084 3.075853 -27.4375 2.9375 C-27.025 2.48375 -26.6125 2.03 -26.1875 1.5625 C-19.69270638 -4.46837979 -7.48533282 -3.44257364 0 0 Z M-22.4375 5.9375 C-21.94440193 8.15644132 -21.39605317 10.02039367 -20.375 12.0625 C-18.48771401 17.85017705 -18.70553537 23.68158911 -21 29.3125 C-22.60057942 33.23602843 -22.60057942 33.23602843 -21.4375 36.9375 C-17.07867318 39.84338455 -13.61740494 40.57362868 -8.4375 39.9375 C-3.07814934 37.94463221 -0.22166874 34.97042042 2.5625 29.9375 C4.40465805 24.41102586 4.59566553 17.9016474 2.66796875 12.37109375 C1.48901319 9.9674623 1.48901319 9.9674623 -0.4375 6.9375 C-1.0975 6.9375 -1.7575 6.9375 -2.4375 6.9375 C-2.4375 6.2775 -2.4375 5.6175 -2.4375 4.9375 C-9.9830926 0.41014444 -15.65692238 0.5130379 -22.4375 5.9375 Z M7.5625 14.9375 C7.5625 18.2375 7.5625 21.5375 7.5625 24.9375 C10.12937367 21.0871895 9.39538724 19.35180237 8.5625 14.9375 C8.2325 14.9375 7.9025 14.9375 7.5625 14.9375 Z M-24.4375 24.9375 C-23.4375 26.9375 -23.4375 26.9375 -23.4375 26.9375 Z " fill="#F9E7F8" transform="translate(302.4375,225.0625)"/>
<path d="M0 0 C13.87463495 1.7497685 13.87463495 1.7497685 19 5 C20.010625 5.61875 21.02125 6.2375 22.0625 6.875 C29.37670979 12.16613049 32.84651734 17.830209 34.50390625 26.6953125 C35.01144209 30.99973035 35.20290772 34.78982298 34 39 C33.9175 39.86625 33.835 40.7325 33.75 41.625 C33 44 33 44 30.4375 45.8125 C29.2309375 46.4003125 29.2309375 46.4003125 28 47 C28.495 49.475 28.495 49.475 29 52 C27.02 52.495 27.02 52.495 25 53 C25 54.32 25 55.64 25 57 C24.0409375 57.1546875 24.0409375 57.1546875 23.0625 57.3125 C22.381875 57.539375 21.70125 57.76625 21 58 C20.67 58.99 20.34 59.98 20 61 C18.35 61 16.7 61 15 61 C15 61.99 15 62.98 15 64 C11.84747417 64.2702165 10.39770584 64.27618461 7.75 62.4375 C3.78716183 60.36601641 0.27025087 60.93643564 -4 62 C-4.99 62.66 -5.98 63.32 -7 64 C-10.58988752 63.6221171 -13.69657291 62.41575447 -17 61 C-17 60.01 -17 59.02 -17 58 C-18.32 57.67 -19.64 57.34 -21 57 C-20.625 55.0625 -20.625 55.0625 -20 53 C-19.01 52.505 -19.01 52.505 -18 52 C-18 52.99 -18 53.98 -18 55 C-17.48050781 54.59007812 -16.96101562 54.18015625 -16.42578125 53.7578125 C-15.72839844 53.21898437 -15.03101563 52.68015625 -14.3125 52.125 C-13.62800781 51.59132813 -12.94351563 51.05765625 -12.23828125 50.5078125 C-5.88523696 46.22810029 0.5521414 46.25962116 8 47 C11.2349407 47.98962111 14.05949088 49.34558624 17 51 C17.69996094 51.33257812 18.39992187 51.66515625 19.12109375 52.0078125 C21 53 21 53 23 55 C15.93301426 47.52918651 8.1283483 44.05503628 -2 43 C0.68340591 41.21106273 1.91930039 40.41829683 5 40 C7.47265625 40.5234375 7.47265625 40.5234375 10.0625 41.375 C10.91972656 41.65085938 11.77695313 41.92671875 12.66015625 42.2109375 C13.43230469 42.47132813 14.20445312 42.73171875 15 43 C15.99 43.33 16.98 43.66 18 44 C15.94766315 41.7522025 14.99332739 40.9977758 12 40 C12 39.34 12 38.68 12 38 C17.44788588 36.18403804 23.46386294 36.57131947 29 38 C28.67 37.67 28.34 37.34 28 37 C27.34 37 26.68 37 26 37 C27.44253657 33.63408134 29.33264727 31.48952921 32 29 C30.02 29.99 30.02 29.99 28 31 C28.2475 30.071875 28.2475 30.071875 28.5 29.125 C29.07634644 27.03936614 29.07634644 27.03936614 29 25 C28.73445313 25.62648437 28.46890625 26.25296875 28.1953125 26.8984375 C27.84210938 27.71570313 27.48890625 28.53296875 27.125 29.375 C26.77695313 30.18710938 26.42890625 30.99921875 26.0703125 31.8359375 C25 34 25 34 23 36 C22.01 35.67 21.02 35.34 20 35 C20.66 33.68 21.32 32.36 22 31 C21.2575 31.825 20.515 32.65 19.75 33.5 C17 36 17 36 13 36 C14.50239201 29.70949688 15.73760033 25.18293307 21 21 C23.70879335 19.64560332 26.00933268 19.93498549 29 20 C28.835 19.38125 28.67 18.7625 28.5 18.125 C28 16 28 16 28 14 C27.38125 13.7525 26.7625 13.505 26.125 13.25 C23.64931313 11.79371361 23.04874998 10.62187494 22 8 C21.67 9.65 21.34 11.3 21 13 C18.525 12.505 18.525 12.505 16 12 C16.33 11.01 16.66 10.02 17 9 C17.66 9 18.32 9 19 9 C18.01 8.01 17.02 7.02 16 6 C15.67 7.98 15.34 9.96 15 12 C14.34 12 13.68 12 13 12 C12.505 8.535 12.505 8.535 12 5 C11.01 4.67 10.02 4.34 9 4 C8.88679144 9.08303686 8.88679144 9.08303686 10 14 C8.68 14 7.36 14 6 14 C5.85304687 12.95199219 5.85304687 12.95199219 5.703125 11.8828125 C5.55359375 10.97273437 5.4040625 10.06265625 5.25 9.125 C5.11078125 8.22007812 4.9715625 7.31515625 4.828125 6.3828125 C4.22016157 3.83785757 4.22016157 3.83785757 1.921875 2.6796875 C1.28765625 2.45539063 0.6534375 2.23109375 0 2 C0.33 2.99 0.66 3.98 1 5 C-2.70736536 6.23578845 -5.18227929 5.62471794 -9 5 C-9.66 5 -10.32 5 -11 5 C-11.33 5.66 -11.66 6.32 -12 7 C-12.99 6.34 -13.98 5.68 -15 5 C-13.5882217 4.46605821 -12.17029756 3.94834896 -10.75 3.4375 C-9.96109375 3.14746094 -9.1721875 2.85742188 -8.359375 2.55859375 C-5.80896548 1.95477163 -4.44677771 2.1526068 -2 3 C-1.34 2.01 -0.68 1.02 0 0 Z M19.3125 24.625 C17.10081774 27.54608978 15.93177805 30.44230198 15 34 C17.87793751 32.70989008 19.96183917 31.42638194 22 29 C22.33 28.01 22.66 27.02 23 26 C25.0625 24.8125 25.0625 24.8125 27 24 C27 23.34 27 22.68 27 22 C23.07808735 21.32767212 22.22822587 21.7770817 19.3125 24.625 Z " fill="#FBF9FC" transform="translate(155,214)"/>
<path d="M0 0 C0.26554688 0.58136719 0.53109375 1.16273438 0.8046875 1.76171875 C2.03287421 4.06155856 3.44780616 5.82336431 5.125 7.8125 C8.11939598 11.69439166 8.27873904 14.0756103 8 19 C9.36997157 21.87146994 9.36997157 21.87146994 11 24 C10.34 24.33 9.68 24.66 9 25 C9.5775 25.144375 10.155 25.28875 10.75 25.4375 C13.875 26.21875 13.875 26.21875 17 27 C16.67 25.68 16.34 24.36 16 23 C16.73605469 23.05800781 17.47210938 23.11601562 18.23046875 23.17578125 C24.49030913 23.52278997 24.49030913 23.52278997 30.0625 21 C32.44004342 17.31864245 33.0227688 14.25793595 34 10 C37 8 37 8 41 8 C41.33 7.34 41.66 6.68 42 6 C42.66 6.66 43.32 7.32 44 8 C43.23300781 8.36738281 42.46601563 8.73476562 41.67578125 9.11328125 C38.34351928 11.46289078 37.61075894 13.40569766 36.1875 17.1875 C35.76855469 18.27417969 35.34960938 19.36085937 34.91796875 20.48046875 C34.61503906 21.31191406 34.31210938 22.14335937 34 23 C37.75263377 21.73420531 39.84665788 20.47163895 42.3125 17.375 C43.08013672 16.42753906 43.08013672 16.42753906 43.86328125 15.4609375 C44.23839844 14.97882813 44.61351562 14.49671875 45 14 C45.495 14.99 45.495 14.99 46 16 C44.02 18.97 44.02 18.97 42 22 C44.67576692 20.99382318 45.7785108 20.45785454 47.046875 17.8359375 C47.39492187 16.61777344 47.39492187 16.61777344 47.75 15.375 C47.99234375 14.55773437 48.2346875 13.74046875 48.484375 12.8984375 C48.65453125 12.27195313 48.8246875 11.64546875 49 11 C50.32 11.66 51.64 12.32 53 13 C52.01 13.66 51.02 14.32 50 15 C50.495 15.495 50.495 15.495 51 16 C51.66 16 52.32 16 53 16 C51.768606 19.69418201 49.79208646 21.35109746 47 24 C48.65 23.67 50.3 23.34 52 23 C51.34 23.99 50.68 24.98 50 26 C49.443125 25.9278125 48.88625 25.855625 48.3125 25.78125 C43.1640555 25.15508783 38.18536962 24.90572055 33 25 C33 25.66 33 26.32 33 27 C34.175625 27.0928125 34.175625 27.0928125 35.375 27.1875 C36.24125 27.455625 37.1075 27.72375 38 28 C39.3125 30.5625 39.3125 30.5625 40 33 C39.01 32.54625 38.02 32.0925 37 31.625 C29.65720617 28.4304326 29.65720617 28.4304326 22 29 C22.99 29.27972656 23.98 29.55945313 25 29.84765625 C33.04162465 32.24599983 39.21946688 34.59154954 45 41 C44.34 41.66 43.68 42.32 43 43 C42.67 42.01 42.34 41.02 42 40 C39.27564363 38.92414941 39.27564363 38.92414941 36 38 C34.989375 37.46375 33.97875 36.9275 32.9375 36.375 C26.7703182 33.72802374 19.34798273 33.83178677 13.078125 36.01953125 C9.06619182 37.98395415 5.53155792 40.26924886 2 43 C2 42.01 2 41.02 2 40 C1.01 40.99 0.02 41.98 -1 43 C-3 41.375 -3 41.375 -5 39 C-5.04080783 37.00041636 -5.04254356 34.99954746 -5 33 C-5.515625 32.505 -6.03125 32.01 -6.5625 31.5 C-7.036875 31.005 -7.51125 30.51 -8 30 C-7.70131344 27.99453311 -7.36628677 25.99422795 -7 24 C-7.63474075 22.65117592 -8.29848848 21.3153341 -9 20 C-8.625 17.75 -8.625 17.75 -8 16 C-6.6078125 16.0928125 -6.6078125 16.0928125 -5.1875 16.1875 C-2.06355351 16.26593653 -2.06355351 16.26593653 -0.0625 14.75 C1.20560056 13.05354717 1.20560056 13.05354717 0.8125 11 C-0.56761464 7.60279474 -1.94248467 6.03834355 -5 4 C-3.35 2.68 -1.7 1.36 0 0 Z M-4 21 C-4 21.66 -4 22.32 -4 23 C-0.71303767 23.79953138 0.71023192 24.09658936 4 23 C3.67 21.68 3.34 20.36 3 19 C-0.10551666 19 -1.35261084 19.5393715 -4 21 Z " fill="#F9E9F9" transform="translate(134,227)"/>
<path d="M0 0 C1.37188477 -0.00386719 1.37188477 -0.00386719 2.77148438 -0.0078125 C7.76161065 0.0658425 7.76161065 0.0658425 9.8125 0.5 C11.9644437 3.72791555 12.01336443 4.78400809 11.8125 8.5 C8.60083724 8.01338443 6.32813085 7.26221878 3.375 5.8125 C-0.12410892 4.15093034 -0.12410892 4.15093034 -3.625 5.3125 C-4.470625 5.704375 -5.31625 6.09625 -6.1875 6.5 C-4.84747035 10.5412473 -3.17221261 12.80627882 -0.0625 15.6875 C1.26399136 16.92193947 2.56500533 18.18577887 3.8125 19.5 C3.8125 20.16 3.8125 20.82 3.8125 21.5 C4.4725 21.5 5.1325 21.5 5.8125 21.5 C5.8125 22.16 5.8125 22.82 5.8125 23.5 C6.4725 23.5 7.1325 23.5 7.8125 23.5 C7.8125 24.16 7.8125 24.82 7.8125 25.5 C8.4725 25.5 9.1325 25.5 9.8125 25.5 C12.67682078 29.96834041 13.29759531 33.24678072 12.52734375 38.37890625 C11.27110949 42.10642101 9.08201482 43.40751051 5.8125 45.5 C3.04684618 46.42188461 1.42966298 46.61785222 -1.41796875 46.59765625 C-2.22041016 46.59443359 -3.02285156 46.59121094 -3.84960938 46.58789062 C-4.68298828 46.57951172 -5.51636719 46.57113281 -6.375 46.5625 C-7.6424707 46.55573242 -7.6424707 46.55573242 -8.93554688 46.54882812 C-11.01956155 46.53705403 -13.10353977 46.5191189 -15.1875 46.5 C-16.95212683 43.41190305 -17.1875 42.26687864 -17.1875 38.5 C-13.81287285 39.04723683 -12.10515 39.5549 -9.1875 41.5 C-7.00563053 41.8157994 -7.00563053 41.8157994 -4.6875 41.75 C-3.52734375 41.75773437 -3.52734375 41.75773437 -2.34375 41.765625 C0.10763844 41.62738062 0.10763844 41.62738062 2.8125 39.5 C3.65189269 36.7607041 3.65189269 36.7607041 2.8125 33.5 C-1.19455557 27.5151029 -7.02106973 22.60500597 -12.1484375 17.6015625 C-15.27515737 14.37900448 -15.38458958 12.10801805 -15.7109375 7.66796875 C-13.74988449 -0.45430306 -6.83239094 -0.21457902 0 0 Z " fill="#F8E1F7" transform="translate(371.1875,222.5)"/>
<path d="M0 0 C5.07193078 -0.12355727 10.14298696 -0.21431615 15.21606445 -0.2746582 C16.94180559 -0.29981005 18.66744012 -0.33393619 20.39282227 -0.37719727 C22.87282581 -0.43782433 25.35142222 -0.46620101 27.83203125 -0.48828125 C28.98998955 -0.52699089 28.98998955 -0.52699089 30.17134094 -0.56648254 C32.35473633 -0.56762695 32.35473633 -0.56762695 36 0 C38.07299805 2.34301758 38.07299805 2.34301758 39 5 C38.67 5.99 38.34 6.98 38 8 C35.03824877 7.38722388 33.61941217 6.74627478 31 5 C28.9507906 4.54860541 28.9507906 4.54860541 26.8125 4.375 C25.554375 4.25125 24.29625 4.1275 23 4 C23.05329468 5.85516235 23.05329468 5.85516235 23.10766602 7.74780273 C23.23764771 12.31912142 23.36094346 16.89059985 23.48217773 21.4621582 C23.53567894 23.44397949 23.5910143 25.42575212 23.64819336 27.4074707 C23.72987855 30.24940493 23.80505172 33.09144662 23.87890625 35.93359375 C23.90594131 36.82525742 23.93297638 37.71692108 23.96083069 38.63560486 C24.01275915 40.75647446 24.01188911 42.87852809 24 45 C23.67 45.33 23.34 45.66 23 46 C19.7 46 16.4 46 13 46 C13 32.47 13 18.94 13 5 C5.5880459 4.53751877 5.5880459 4.53751877 1 8 C0.01 8 -0.98 8 -2 8 C-1.125 2.25 -1.125 2.25 0 0 Z M18 40 C19 42 19 42 19 42 Z " fill="#FBFAFC" transform="translate(315,223)"/>
<path d="M0 0 C1.92578125 1.2890625 1.92578125 1.2890625 3.92578125 3.2890625 C3.59578125 4.2790625 3.26578125 5.2690625 2.92578125 6.2890625 C-3.58039159 3.61005015 -3.58039159 3.61005015 -6.57421875 1.6640625 C-10.38369003 -0.43114671 -13.91362859 -1.29982764 -18.1953125 -0.1328125 C-20.18799743 0.61307324 -22.12656426 1.43378814 -24.07421875 2.2890625 C-25.06421875 2.6190625 -26.05421875 2.9490625 -27.07421875 3.2890625 C-27.03296875 4.0315625 -26.99171875 4.7740625 -26.94921875 5.5390625 C-27.07820009 8.37665202 -27.64473097 9.87680188 -29.07421875 12.2890625 C-29.73421875 12.2890625 -30.39421875 12.2890625 -31.07421875 12.2890625 C-31.07421875 16.9090625 -31.07421875 21.5290625 -31.07421875 26.2890625 C-30.41421875 26.2890625 -29.75421875 26.2890625 -29.07421875 26.2890625 C-27.6447693 28.64344983 -26.98760614 29.76938683 -27.44921875 32.5390625 C-27.65546875 33.1165625 -27.86171875 33.6940625 -28.07421875 34.2890625 C-29.06421875 34.2890625 -30.05421875 34.2890625 -31.07421875 34.2890625 C-31.07421875 34.9490625 -31.07421875 35.6090625 -31.07421875 36.2890625 C-37.53009391 40.73644317 -43.93901117 42.20499134 -51.74609375 40.8125 C-56.12857839 39.54241687 -56.12857839 39.54241687 -58.07421875 38.2890625 C-58.81640625 36.17578125 -58.81640625 36.17578125 -59.07421875 34.2890625 C-55.07421875 36.2890625 -55.07421875 36.2890625 -53.2421875 37.33984375 C-49.34466398 39.04632702 -45.24509237 38.75549731 -41.07421875 38.2890625 C-38.14875435 36.9381337 -38.14875435 36.9381337 -36.07421875 35.2890625 C-35.41421875 35.2890625 -34.75421875 35.2890625 -34.07421875 35.2890625 C-34.88397239 33.47533387 -35.69709896 31.66311076 -36.51171875 29.8515625 C-36.96417969 28.84222656 -37.41664063 27.83289063 -37.8828125 26.79296875 C-38.84870077 24.4030154 -38.84870077 24.4030154 -40.07421875 23.2890625 C-40.51012511 18.05818614 -39.57862747 14.1988856 -37.73046875 9.3046875 C-36.91942573 7.16692113 -36.91942573 7.16692113 -37.07421875 4.2890625 C-40.59673547 1.31693902 -43.70245215 0.81152372 -48.15234375 1.00390625 C-52.44175072 1.64034265 -54.63635575 3.78019469 -57.38671875 6.9765625 C-57.94359375 7.7396875 -58.50046875 8.5028125 -59.07421875 9.2890625 C-59.73421875 8.9590625 -60.39421875 8.6290625 -61.07421875 8.2890625 C-58.56143182 4.10108429 -56.58522207 1.31901399 -52.07421875 -0.7109375 C-50.75421875 -0.7109375 -49.43421875 -0.7109375 -48.07421875 -0.7109375 C-48.07421875 -1.3709375 -48.07421875 -2.0309375 -48.07421875 -2.7109375 C-42.5010058 -3.1852535 -38.99130135 -2.06398361 -33.9921875 0.4140625 C-32.12230959 1.4274155 -32.12230959 1.4274155 -30.07421875 1.2890625 C-29.66171875 0.8353125 -29.24921875 0.3815625 -28.82421875 -0.0859375 C-21.21245748 -7.15400154 -8.10667249 -4.53761373 0 0 Z " fill="#FAECFA" transform="translate(305.07421875,226.7109375)"/>
<path d="M0 0 C4.69912211 3.16679968 4.69912211 3.16679968 5.8125 6.25 C5.874375 6.8275 5.93625 7.405 6 8 C4.35 8 2.7 8 1 8 C1 8.99 1 9.98 1 11 C-2.15252583 11.2702165 -3.60229416 11.27618461 -6.25 9.4375 C-10.21283817 7.36601641 -13.72974913 7.93643564 -18 9 C-18.99 9.66 -19.98 10.32 -21 11 C-23.4375 10.9375 -23.4375 10.9375 -26 10 C-28.3125 7.4375 -28.3125 7.4375 -30 5 C-21.17386904 -3.30387469 -11.05962207 -6.07194937 0 0 Z M-26 4 C-26 4.99 -26 5.98 -26 7 C-25.34 6.01 -24.68 5.02 -24 4 C-24.66 4 -25.32 4 -26 4 Z " fill="#FCFAFC" transform="translate(169,267)"/>
<path d="M0 0 C3.24983 -0.08728882 6.4993575 -0.14048658 9.75 -0.1875 C11.13058594 -0.22520508 11.13058594 -0.22520508 12.5390625 -0.26367188 C13.42851562 -0.27333984 14.31796875 -0.28300781 15.234375 -0.29296875 C16.05131836 -0.3086792 16.86826172 -0.32438965 17.70996094 -0.34057617 C20.51240627 0.07620541 21.88847021 1.16195148 24 3 C23.01 3.33 22.02 3.66 21 4 C19 3 19 3 17 2 C14.40845081 1.75970041 14.40845081 1.75970041 11.75 1.875 C10.1825 1.91625 8.615 1.9575 7 2 C7 5.3 7 8.6 7 12 C6.67 12 6.34 12 6 12 C5.67 9.03 5.34 6.06 5 3 C3.99503148 6.01490557 3.89664697 8.04181692 3.9375 11.1875 C3.95103516 12.53908203 3.95103516 12.53908203 3.96484375 13.91796875 C3.97644531 14.60503906 3.98804688 15.29210937 4 16 C4.66 16 5.32 16 6 16 C6.33 15.01 6.66 14.02 7 13 C10.25110453 23.77895966 10.3181514 33.84113421 10 45 C6.37 45 2.74 45 -1 45 C-0.9278125 43.67871094 -0.855625 42.35742188 -0.78125 40.99609375 C-0.07542943 27.32003388 0.12330664 13.69272833 0 0 Z M4 23 C4.33 24.65 4.66 26.3 5 28 C5.33 28 5.66 28 6 28 C6 26.35 6 24.7 6 23 C5.34 23 4.68 23 4 23 Z M4 32 C3.67 34.97 3.34 37.94 3 41 C3.99 41.33 4.98 41.66 6 42 C6.04125 40.72125 6.0825 39.4425 6.125 38.125 C6.14820313 37.40570313 6.17140625 36.68640625 6.1953125 35.9453125 C6.18331689 33.76136355 6.18331689 33.76136355 4 32 Z " fill="#F6D5F5" transform="translate(201,224)"/>
<path d="M0 0 C0.8971875 0.7425 0.8971875 0.7425 1.8125 1.5 C5.02451664 2.74547584 7.36091425 3.5 10.8125 3.5 C14.32799154 7.71858985 15.49219106 13.11880985 15.8125 18.5 C14.63098388 25.58909671 11.22074824 31.84745549 5.5 36.25 C-0.85821993 40.43942034 -7.72294004 41.32277099 -15.1875 40.5 C-17.73147619 39.71688989 -19.81398853 38.73835381 -22.1875 37.5 C-21.1975 37.005 -21.1975 37.005 -20.1875 36.5 C-19.218125 36.83 -18.24875 37.16 -17.25 37.5 C-10.97428565 39.41284822 -3.90975039 38.70971934 1.9375 35.75 C4.93435487 33.81096066 4.93435487 33.81096066 5.6875 31.125 C5.72875 30.25875 5.77 29.3925 5.8125 28.5 C5.998125 27.406875 6.18375 26.31375 6.375 25.1875 C6.519375 24.300625 6.66375 23.41375 6.8125 22.5 C6.4825 22.5 6.1525 22.5 5.8125 22.5 C5.77511719 21.77554688 5.73773438 21.05109375 5.69921875 20.3046875 C5.31496722 14.65392978 4.74403851 10.47086964 1.8125 5.5 C1.8125 4.84 1.8125 4.18 1.8125 3.5 C1.1525 3.5 0.4925 3.5 -0.1875 3.5 C-0.1875 2.84 -0.1875 2.18 -0.1875 1.5 C-4.92473205 -0.39489282 -9.14032205 -1.1909827 -14.1875 -0.5 C-17.58991824 0.8648868 -17.58991824 0.8648868 -20.1875 2.5 C-19.625 0.625 -19.625 0.625 -18.1875 -1.5 C-12.03102308 -4.2641325 -5.59956758 -3.83970349 0 0 Z M9.8125 11.5 C9.8125 14.8 9.8125 18.1 9.8125 21.5 C12.37937367 17.6496895 11.64538724 15.91430237 10.8125 11.5 C10.4825 11.5 10.1525 11.5 9.8125 11.5 Z " fill="#FAF5FA" transform="translate(300.1875,228.5)"/>
<path d="M0 0 C3.875 0.875 3.875 0.875 5 2 C5.45459858 4.65463121 5.70243238 7.32189138 6 10 C6.99 10.33 7.98 10.66 9 11 C8.814375 10.2575 8.62875 9.515 8.4375 8.75 C8.00796892 6.05009037 8.14877026 4.55368923 9 2 C10.32 2.33 11.64 2.66 13 3 C13 5.31 13 7.62 13 10 C13.66 10 14.32 10 15 10 C14.79375 9.401875 14.5875 8.80375 14.375 8.1875 C14 6 14 6 16 3 C16.99 3.66 17.98 4.32 19 5 C19 5.66 19 6.32 19 7 C18.01 7.495 18.01 7.495 17 8 C17 8.66 17 9.32 17 10 C18.32 9.67 19.64 9.34 21 9 C20.67 8.01 20.34 7.02 20 6 C20.66 6 21.32 6 22 6 C23.38938077 7.96147874 24.7260411 9.96166576 26 12 C24.576875 12.4021875 24.576875 12.4021875 23.125 12.8125 C19.74732727 13.74986588 19.74732727 13.74986588 18 17 C18 16.34 18 15.68 18 15 C15.36 14.67 12.72 14.34 10 14 C9.9175 15.27875 9.835 16.5575 9.75 17.875 C9.23341837 21.76658163 9.23341837 21.76658163 7.4375 23.5625 C3.70755551 24.23197722 0.73204432 23.72233116 -3 23 C-3.66 22.34 -4.32 21.68 -5 21 C-4.625 18.875 -4.625 18.875 -4 17 C-2.35 17 -0.7 17 1 17 C1.10670308 11.87825199 0.68834047 7.07651095 0 2 C0 1.34 0 0.68 0 0 Z " fill="#FCFAFD" transform="translate(155,216)"/>
<path d="M0 0 C13.87463495 1.7497685 13.87463495 1.7497685 19 5 C20.010625 5.61875 21.02125 6.2375 22.0625 6.875 C28.67236984 11.65660797 31.56240481 16.30591461 34 24 C34 24.66 34 25.32 34 26 C32.35 25.67 30.7 25.34 29 25 C28.73445313 25.62648437 28.46890625 26.25296875 28.1953125 26.8984375 C27.84210938 27.71570313 27.48890625 28.53296875 27.125 29.375 C26.77695313 30.18710938 26.42890625 30.99921875 26.0703125 31.8359375 C25 34 25 34 23 36 C22.01 35.67 21.02 35.34 20 35 C20.66 33.68 21.32 32.36 22 31 C21.2575 31.825 20.515 32.65 19.75 33.5 C17 36 17 36 13 36 C14.50239201 29.70949688 15.73760033 25.18293307 21 21 C23.70879335 19.64560332 26.00933268 19.93498549 29 20 C28.835 19.38125 28.67 18.7625 28.5 18.125 C28 16 28 16 28 14 C27.38125 13.7525 26.7625 13.505 26.125 13.25 C23.64931313 11.79371361 23.04874998 10.62187494 22 8 C21.67 9.65 21.34 11.3 21 13 C18.525 12.505 18.525 12.505 16 12 C16.33 11.01 16.66 10.02 17 9 C17.66 9 18.32 9 19 9 C18.01 8.01 17.02 7.02 16 6 C15.67 7.98 15.34 9.96 15 12 C14.34 12 13.68 12 13 12 C12.67 9.69 12.34 7.38 12 5 C11.01 4.67 10.02 4.34 9 4 C8.88679144 9.08303686 8.88679144 9.08303686 10 14 C8.68 14 7.36 14 6 14 C5.85304687 12.95199219 5.85304687 12.95199219 5.703125 11.8828125 C5.55359375 10.97273437 5.4040625 10.06265625 5.25 9.125 C5.11078125 8.22007812 4.9715625 7.31515625 4.828125 6.3828125 C4.22016157 3.83785757 4.22016157 3.83785757 1.921875 2.6796875 C1.28765625 2.45539063 0.6534375 2.23109375 0 2 C0.33 2.99 0.66 3.98 1 5 C-2.70736536 6.23578845 -5.18227929 5.62471794 -9 5 C-9.66 5 -10.32 5 -11 5 C-11.33 5.66 -11.66 6.32 -12 7 C-12.99 6.34 -13.98 5.68 -15 5 C-13.5882217 4.46605821 -12.17029756 3.94834896 -10.75 3.4375 C-9.96109375 3.14746094 -9.1721875 2.85742188 -8.359375 2.55859375 C-5.80896548 1.95477163 -4.44677771 2.1526068 -2 3 C-1.34 2.01 -0.68 1.02 0 0 Z M19.3125 24.625 C17.10081774 27.54608978 15.93177805 30.44230198 15 34 C17.87793751 32.70989008 19.96183917 31.42638194 22 29 C22.33 28.01 22.66 27.02 23 26 C25.0625 24.8125 25.0625 24.8125 27 24 C27 23.34 27 22.68 27 22 C23.07808735 21.32767212 22.22822587 21.7770817 19.3125 24.625 Z " fill="#FAF5FB" transform="translate(155,214)"/>
<path d="M0 0 C0.99 0.66 1.98 1.32 3 2 C1.84951172 2.55107422 1.84951172 2.55107422 0.67578125 3.11328125 C-2.65648072 5.46289078 -3.38924106 7.40569766 -4.8125 11.1875 C-5.23144531 12.27417969 -5.65039062 13.36085937 -6.08203125 14.48046875 C-6.53642578 15.72763672 -6.53642578 15.72763672 -7 17 C-3.24736623 15.73420531 -1.15334212 14.47163895 1.3125 11.375 C1.82425781 10.74335938 2.33601563 10.11171875 2.86328125 9.4609375 C3.23839844 8.97882813 3.61351562 8.49671875 4 8 C4.495 8.99 4.495 8.99 5 10 C3.02 12.97 3.02 12.97 1 16 C3.67576692 14.99382318 4.7785108 14.45785454 6.046875 11.8359375 C6.27890625 11.02382812 6.5109375 10.21171875 6.75 9.375 C6.99234375 8.55773437 7.2346875 7.74046875 7.484375 6.8984375 C7.65453125 6.27195313 7.8246875 5.64546875 8 5 C9.32 5.66 10.64 6.32 12 7 C11.01 7.66 10.02 8.32 9 9 C9.495 9.495 9.495 9.495 10 10 C10.66 10 11.32 10 12 10 C10.768606 13.69418201 8.79208646 15.35109746 6 18 C7.65 17.67 9.3 17.34 11 17 C10.34 17.99 9.68 18.98 9 20 C8.443125 19.9278125 7.88625 19.855625 7.3125 19.78125 C2.1640555 19.15508783 -2.81463038 18.90572055 -8 19 C-8 19.66 -8 20.32 -8 21 C-6.824375 21.0928125 -6.824375 21.0928125 -5.625 21.1875 C-4.75875 21.455625 -3.8925 21.72375 -3 22 C-1.6875 24.5625 -1.6875 24.5625 -1 27 C-1.99 26.54625 -2.98 26.0925 -4 25.625 C-13.65908765 21.50769193 -20.68056816 21.20885703 -30.51171875 25.125 C-33 26 -33 26 -36 26 C-35.5 24.125 -35.5 24.125 -34 22 C-31.4010039 20.9482876 -28.7881859 20.29624475 -26 20 C-25.34 20.33 -24.68 20.66 -24 21 C-24.33 19.68 -24.66 18.36 -25 17 C-24.26394531 17.05800781 -23.52789062 17.11601562 -22.76953125 17.17578125 C-16.50969087 17.52278997 -16.50969087 17.52278997 -10.9375 15 C-8.55995658 11.31864245 -7.9772312 8.25793595 -7 4 C-4 2 -4 2 0 2 C0 1.34 0 0.68 0 0 Z " fill="#DE18D5" transform="translate(175,233)"/>
<path d="M0 0 C2 2 2 2 2 6 C2.66 6 3.32 6 4 6 C4.33 5.34 4.66 4.68 5 4 C5.83288874 10.25307239 6.03863773 15.76817361 5 22 C5.66 22 6.32 22 7 22 C7.268125 22.61875 7.53625 23.2375 7.8125 23.875 C8.95556848 26.2995233 8.95556848 26.2995233 12 28 C17.80030503 28.66136597 17.80030503 28.66136597 22.8125 26.0625 C25.55907951 22.21728868 26.69956306 18.49463519 28 14 C28.64896236 12.32636023 29.30580437 10.65538958 30 9 C30.99 9.33 31.98 9.66 33 10 C33.66 9.34 34.32 8.68 35 8 C37.70879335 6.64560332 40.00933268 6.93498549 43 7 C43.99 9.31 44.98 11.62 46 14 C45.34 14.66 44.68 15.32 44 16 C44 15.01 44 14.02 44 13 C38.26685644 12.70345809 35.09670254 13.08759855 30 16 C29.34 16 28.68 16 28 16 C28.12375 17.299375 28.12375 17.299375 28.25 18.625 C27.93918637 22.82098405 26.59375096 24.73928451 24 28 C20.68629 30.20914 19.6553979 30.22481553 15.8125 30.125 C14.91144531 30.10695312 14.01039063 30.08890625 13.08203125 30.0703125 C12.39496094 30.04710937 11.70789063 30.02390625 11 30 C11 30.99 11 31.98 11 33 C7.625 33.1875 7.625 33.1875 4 33 C3.34 32.01 2.68 31.02 2 30 C2.66 29.67 3.32 29.34 4 29 C3.505 28.484375 3.01 27.96875 2.5 27.4375 C0.50659211 24.19821218 0.85900326 21.73641358 1 18 C0.67 17.67 0.34 17.34 0 17 C0.00910156 13.69613482 0.1333688 10.40298073 0.2578125 7.1015625 C0.2873433 4.00275863 0.2873433 4.00275863 -1.5078125 2.0859375 C-2.00023437 1.72757813 -2.49265625 1.36921875 -3 1 C-2.01 0.67 -1.02 0.34 0 0 Z " fill="#F5D8F5" transform="translate(140,221)"/>
<path d="M0 0 C1.92578125 1.2890625 1.92578125 1.2890625 3.92578125 3.2890625 C3.59578125 4.2790625 3.26578125 5.2690625 2.92578125 6.2890625 C-3.58039159 3.61005015 -3.58039159 3.61005015 -6.57421875 1.6640625 C-10.38369003 -0.43114671 -13.91362859 -1.29982764 -18.1953125 -0.1328125 C-20.18799743 0.61307324 -22.12656426 1.43378814 -24.07421875 2.2890625 C-25.06421875 2.6190625 -26.05421875 2.9490625 -27.07421875 3.2890625 C-27.03296875 4.0315625 -26.99171875 4.7740625 -26.94921875 5.5390625 C-27.07820009 8.37665202 -27.64473097 9.87680188 -29.07421875 12.2890625 C-29.73421875 12.2890625 -30.39421875 12.2890625 -31.07421875 12.2890625 C-31.07421875 16.9090625 -31.07421875 21.5290625 -31.07421875 26.2890625 C-30.41421875 26.2890625 -29.75421875 26.2890625 -29.07421875 26.2890625 C-26.9655649 29.76213942 -26.9655649 29.76213942 -27.515625 32.4296875 C-27.69996094 33.04328125 -27.88429688 33.656875 -28.07421875 34.2890625 C-32.88164097 27.48999393 -34.34068273 21.57151275 -33.07421875 13.2890625 C-32.0067347 10.30652123 -30.74681707 8.00703477 -29.07421875 5.2890625 C-29.40421875 4.9590625 -29.73421875 4.6290625 -30.07421875 4.2890625 C-31.06421875 4.9490625 -32.05421875 5.6090625 -33.07421875 6.2890625 C-33.69296875 5.5259375 -34.31171875 4.7628125 -34.94921875 3.9765625 C-38.5441837 0.30865623 -43.21419994 -0.55019514 -48.07421875 -1.7109375 C-48.07421875 -2.0409375 -48.07421875 -2.3709375 -48.07421875 -2.7109375 C-42.5010058 -3.1852535 -38.99130135 -2.06398361 -33.9921875 0.4140625 C-32.12230959 1.4274155 -32.12230959 1.4274155 -30.07421875 1.2890625 C-29.66171875 0.8353125 -29.24921875 0.3815625 -28.82421875 -0.0859375 C-21.21245748 -7.15400154 -8.10667249 -4.53761373 0 0 Z " fill="#F9F6F9" transform="translate(305.07421875,226.7109375)"/>
<path d="M0 0 C11.88 0 23.76 0 36 0 C36 0.33 36 0.66 36 1 C27.585 1.495 27.585 1.495 19 2 C19.33 2.33 19.66 2.66 20 3 C20.04873954 6.11019171 20.04165131 9.20317467 20 12.3125 C19.91926515 22.90619701 20.36408114 33.42784887 21 44 C19.35 44 17.7 44 16 44 C15.97532668 38.19759432 15.95715276 32.39521902 15.94506836 26.59277344 C15.9400319 24.61783313 15.93320249 22.64289657 15.92456055 20.66796875 C15.91246492 17.83332395 15.9067649 14.99872834 15.90234375 12.1640625 C15.89718246 11.27756012 15.89202118 10.39105774 15.88670349 9.47769165 C15.88612829 3.22774341 15.88612829 3.22774341 17 1 C14.55883375 1.03302931 12.12681489 1.10014162 9.6875 1.1875 C8.65206055 1.19620117 8.65206055 1.19620117 7.59570312 1.20507812 C5.2983674 1.25390458 5.2983674 1.25390458 2 2 C-0.04478968 4.40313516 -0.04478968 4.40313516 -1 7 C-0.34 7.33 0.32 7.66 1 8 C0.01 8 -0.98 8 -2 8 C-1.125 2.25 -1.125 2.25 0 0 Z M18 40 C19 42 19 42 19 42 Z " fill="#FEFCFE" transform="translate(315,223)"/>
<path d="M0 0 C0.62777344 0.35320312 1.25554687 0.70640625 1.90234375 1.0703125 C2.62292969 1.40289062 3.34351563 1.73546875 4.0859375 2.078125 C5.90234375 3.0703125 5.90234375 3.0703125 6.90234375 5.0703125 C7.89234375 5.7303125 8.88234375 6.3903125 9.90234375 7.0703125 C8.58234375 7.4003125 7.26234375 7.7303125 5.90234375 8.0703125 C5.90234375 8.7303125 5.90234375 9.3903125 5.90234375 10.0703125 C5.24234375 10.0703125 4.58234375 10.0703125 3.90234375 10.0703125 C3.69609375 9.4928125 3.48984375 8.9153125 3.27734375 8.3203125 C1.14033801 4.82339402 -2.08680656 2.70466302 -5.9921875 1.47265625 C-12.82052702 0.16779731 -18.98926382 0.59691288 -25.09765625 4.0703125 C-27.97450828 6.61119929 -27.97450828 6.61119929 -30.09765625 9.0703125 C-29.43765625 9.4003125 -28.77765625 9.7303125 -28.09765625 10.0703125 C-28.42765625 10.7303125 -28.75765625 11.3903125 -29.09765625 12.0703125 C-30.08765625 11.7403125 -31.07765625 11.4103125 -32.09765625 11.0703125 C-32.09765625 10.0803125 -32.09765625 9.0903125 -32.09765625 8.0703125 C-33.41765625 7.7403125 -34.73765625 7.4103125 -36.09765625 7.0703125 C-35.72265625 5.1328125 -35.72265625 5.1328125 -35.09765625 3.0703125 C-34.43765625 2.7403125 -33.77765625 2.4103125 -33.09765625 2.0703125 C-33.09765625 3.0603125 -33.09765625 4.0503125 -33.09765625 5.0703125 C-32.57816406 4.66039062 -32.05867187 4.25046875 -31.5234375 3.828125 C-30.47736328 3.01988281 -30.47736328 3.01988281 -29.41015625 2.1953125 C-28.72566406 1.66164063 -28.04117188 1.12796875 -27.3359375 0.578125 C-19.09989298 -4.97006555 -8.62563177 -4.47009708 0 0 Z M-27.09765625 7.0703125 C-26.43765625 7.4003125 -25.77765625 7.7303125 -25.09765625 8.0703125 C-26.08765625 8.7303125 -27.07765625 9.3903125 -28.09765625 10.0703125 C-27.76765625 9.0803125 -27.43765625 8.0903125 -27.09765625 7.0703125 Z " fill="#FCFAFC" transform="translate(170.09765625,263.9296875)"/>
<path d="M0 0 C0.66 0.33 1.32 0.66 2 1 C0.02 1.99 0.02 1.99 -2 3 C1.21530757 9.42909908 1.21530757 9.42909908 5.8125 14.875 C6.534375 15.57625 7.25625 16.2775 8 17 C8 17.99 8 18.98 8 20 C3.90215795 20.47056559 0.0782088 20.7053339 -4 20 C-6.59603908 17.72249332 -7.92664624 15.26374427 -9 12 C-9 11.01 -9 10.02 -9 9 C-9.33 8.01 -9.66 7.02 -10 6 C-10 5.01 -10 4.02 -10 3 C-8.9171875 3.37125 -8.9171875 3.37125 -7.8125 3.75 C-4.8205652 4.31737069 -4.8205652 4.31737069 -2.1875 2.0625 C-1.465625 1.381875 -0.74375 0.70125 0 0 Z M-8 5 C-7.34 5.66 -6.68 6.32 -6 7 C-6 6.34 -6 5.68 -6 5 C-6.66 5 -7.32 5 -8 5 Z M-6 7 C-5.67 7.99 -5.34 8.98 -5 10 C-5 9.01 -5 8.02 -5 7 C-5.33 7 -5.66 7 -6 7 Z M-4 10 C-2.75023244 13.65316671 -2.32901247 14.78065836 1 17 C-0.24976756 13.34683329 -0.67098753 12.21934164 -4 10 Z " fill="#FAF9FB" transform="translate(226,249)"/>
<path d="M0 0 C0.66 0 1.32 0 2 0 C2.23074219 0.53109375 2.46148437 1.0621875 2.69921875 1.609375 C4.81189223 6.18544245 6.63816456 9.20395164 11 12 C14.57634313 13.19211438 17.24064683 13.25926574 21 13 C23.87146994 11.63002843 23.87146994 11.63002843 26 10 C25.855625 9.278125 25.71125 8.55625 25.5625 7.8125 C25.04166667 5.20833333 24.52083333 2.60416667 24 0 C27.28220895 1.64110448 27.74570789 4.69322988 29 8 C29 8.99 29 9.98 29 11 C23.35605517 14.92622249 18.86018169 15.99995869 12 15 C9 13.5625 9 13.5625 7 12 C6.34 11.67 5.68 11.34 5 11 C5 11.99 5 12.98 5 14 C12.76905991 16.16514784 20.63037123 17.22940243 28.0625 13.4375 C28.701875 12.963125 29.34125 12.48875 30 12 C30.66 12 31.32 12 32 12 C32 11.34 32 10.68 32 10 C32.99 9.67 33.98 9.34 35 9 C35.495 11.475 35.495 11.475 36 14 C34.7625 14.1546875 34.7625 14.1546875 33.5 14.3125 C30.7171754 14.85912626 28.79264542 15.46688856 26.25 16.5625 C19.54519961 19.1373473 13.36130623 18.75887515 6.6875 16.25 C3.01172357 14.60024208 -0.2539284 13.02067876 -3 10 C-3.3125 7.25 -3.3125 7.25 -3 5 C-1.02 6.65 0.96 8.3 3 10 C2.5359375 9.195625 2.5359375 9.195625 2.0625 8.375 C0.82172561 5.6015043 0.4090325 2.99957163 0 0 Z " fill="#FAF8FB" transform="translate(242,251)"/>
<path d="M0 0 C0.26554688 0.58136719 0.53109375 1.16273438 0.8046875 1.76171875 C2.03287421 4.06155856 3.44780616 5.82336431 5.125 7.8125 C8.11939598 11.69439166 8.27873904 14.0756103 8 19 C9.36997157 21.87146994 9.36997157 21.87146994 11 24 C8.69 24.33 6.38 24.66 4 25 C4.99 24.01 5.98 23.02 7 22 C6.01 20.68 5.02 19.36 4 18 C-0.02992782 18.55312735 -4.02022924 19.1558062 -8 20 C-8 18.68 -8 17.36 -8 16 C-6.6078125 16.0928125 -6.6078125 16.0928125 -5.1875 16.1875 C-2.06355351 16.26593653 -2.06355351 16.26593653 -0.0625 14.75 C1.20560056 13.05354717 1.20560056 13.05354717 0.8125 11 C-0.56761464 7.60279474 -1.94248467 6.03834355 -5 4 C-3.35 2.68 -1.7 1.36 0 0 Z " fill="#DF3BD8" transform="translate(134,227)"/>
<path d="M0 0 C0.33 0.99 0.66 1.98 1 3 C0.67 3.33 0.34 3.66 0 4 C0.804375 4.721875 1.60875 5.44375 2.4375 6.1875 C5.02292072 9.02515689 5.68042813 10.27166147 6 14 C5.34 14 4.68 14 4 14 C3.01 15.485 3.01 15.485 2 17 C-1.125 17.1875 -1.125 17.1875 -4 17 C-4.15266459 19.74796255 -4.24574881 21.537414 -2.9375 24 C-1.69257445 26.65584118 -2.23213151 28.23567345 -3 31 C-3.66 31 -4.32 31 -5 31 C-4.979375 30.05125 -4.95875 29.1025 -4.9375 28.125 C-4.77448174 25.09333717 -4.77448174 25.09333717 -6 23 C-6.05746029 14.99003557 -5.0623055 7.97362444 -1 1 C-0.67 0.67 -0.34 0.34 0 0 Z " fill="#FBF9FC" transform="translate(130,227)"/>
<path d="M0 0 C3.29649177 2.11231511 6.19782101 4.57469169 9.01171875 7.2890625 C8.35171875 7.9490625 7.69171875 8.6090625 7.01171875 9.2890625 C6.51671875 7.8040625 6.51671875 7.8040625 6.01171875 6.2890625 C3.28736238 5.21321191 3.28736238 5.21321191 0.01171875 4.2890625 C-0.99890625 3.7528125 -2.00953125 3.2165625 -3.05078125 2.6640625 C-9.21796305 0.01708624 -16.64029852 0.12084927 -22.91015625 2.30859375 C-26.92208943 4.27301665 -30.45672333 6.55831136 -33.98828125 9.2890625 C-32.12391759 3.69597153 -29.8081722 1.21555244 -24.55078125 -1.4609375 C-16.51181226 -4.17558934 -7.55759918 -3.88357222 0 0 Z " fill="#DE18D5" transform="translate(169.98828125,260.7109375)"/>
<path d="M0 0 C2.60478883 -0.0809313 5.20706653 -0.14045434 7.8125 -0.1875 C8.55048828 -0.21263672 9.28847656 -0.23777344 10.04882812 -0.26367188 C15.50994531 -0.33780469 15.50994531 -0.33780469 18.01171875 1.38671875 C19 3 19 3 19 5 C17 4 15 3 13 2 C11.62657169 1.9310528 10.24997898 1.91532292 8.875 1.9375 C7.59625 1.958125 6.3175 1.97875 5 2 C3.86297214 6.52057096 3.87185366 10.95339783 3.90234375 15.58203125 C3.9037587 16.39621017 3.90517365 17.2103891 3.90663147 18.04924011 C3.91220683 20.63703156 3.92475476 23.22473492 3.9375 25.8125 C3.94251819 27.57226437 3.94708054 29.33203011 3.95117188 31.09179688 C3.96216819 35.39456494 3.97941579 39.69726756 4 44 C1.36 44 -1.28 44 -4 44 C-4 43.34 -4 42.68 -4 42 C-1.69 42.33 0.62 42.66 3 43 C2.505 41.515 2.505 41.515 2 40 C1.85201947 38.40441447 1.75244382 36.80407818 1.68359375 35.203125 C1.62075195 33.77456177 1.62075195 33.77456177 1.55664062 32.31713867 C1.51732422 31.30498291 1.47800781 30.29282715 1.4375 29.25 C1.39431641 28.22044189 1.35113281 27.19088379 1.30664062 26.13012695 C1.02475358 18.96829443 0.93525435 11.83348916 1.0625 4.66796875 C1.19018522 2.02525063 1.19018522 2.02525063 0 0 Z " fill="#DE18D5" transform="translate(333,224)"/>
<path d="M0 0 C1.37188477 -0.00386719 1.37188477 -0.00386719 2.77148438 -0.0078125 C7.76161065 0.0658425 7.76161065 0.0658425 9.8125 0.5 C11.9644437 3.72791555 12.01336443 4.78400809 11.8125 8.5 C8.60083724 8.01338443 6.32813085 7.26221878 3.375 5.8125 C-0.12410892 4.15093034 -0.12410892 4.15093034 -3.625 5.3125 C-4.470625 5.704375 -5.31625 6.09625 -6.1875 6.5 C-4.9383258 9.95925163 -3.51222205 12.64693203 -1.1875 15.5 C-4.84066671 14.25023244 -5.96815836 13.82901247 -8.1875 10.5 C-8.5625 8 -8.5625 8 -8.1875 5.5 C-5.76275886 2.57010446 -4.12100435 2.49356494 -0.3125 2.125 C3.61867328 2.25751146 6.4260778 3.46814668 9.8125 5.5 C9.4825 4.84 9.1525 4.18 8.8125 3.5 C5.35915458 2.34888486 2.51356112 2.26004214 -1.125 2.1875 C-2.96384766 2.13142578 -2.96384766 2.13142578 -4.83984375 2.07421875 C-8.2453002 2.2167498 -8.2453002 2.2167498 -10.5703125 4.3671875 C-12.48456525 6.8917817 -13.11012439 8.32760011 -13.1875 11.5 C-12.24023046 13.19719127 -11.24521739 14.86935236 -10.1875 16.5 C-10.5175 17.16 -10.8475 17.82 -11.1875 18.5 C-14.76384238 14.92365762 -15.64988311 12.42105762 -15.81640625 7.5625 C-13.39110452 -0.39128456 -6.97442976 -0.21903991 0 0 Z " fill="#FBFAFC" transform="translate(371.1875,222.5)"/>
<path d="M0 0 C1.32 0 2.64 0 4 0 C5.28008753 8.3916849 5.28008753 8.3916849 4 13 C3.814375 13.763125 3.62875 14.52625 3.4375 15.3125 C3.2209375 16.1478125 3.2209375 16.1478125 3 17 C1.68 17 0.36 17 -1 17 C-3.20072961 17.72510734 -3.20072961 17.72510734 -5 19 C-5.33 19.99 -5.66 20.98 -6 22 C-5.01 22.33 -4.02 22.66 -3 23 C-3.33 23.99 -3.66 24.98 -4 26 C-7.67230705 22.92000054 -8.56802365 20.7517398 -9 16 C-8.360625 15.87625 -7.72125 15.7525 -7.0625 15.625 C-6.381875 15.41875 -5.70125 15.2125 -5 15 C-4.67 14.34 -4.34 13.68 -4 13 C-1.9375 11.875 -1.9375 11.875 0 11 C-1.32 11 -2.64 11 -4 11 C-2.55746343 7.63408134 -0.66735273 5.48952921 2 3 C0.02 3.99 0.02 3.99 -2 5 C-1.125 1.125 -1.125 1.125 0 0 Z " fill="#FCF9FC" transform="translate(185,240)"/>
<path d="M0 0 C1.98 0.495 1.98 0.495 4 1 C4 3.31 4 5.62 4 8 C4.66 8 5.32 8 6 8 C5.79375 7.401875 5.5875 6.80375 5.375 6.1875 C5 4 5 4 7 1 C7.99 1.66 8.98 2.32 10 3 C10 3.66 10 4.32 10 5 C9.01 5.495 9.01 5.495 8 6 C8 6.66 8 7.32 8 8 C9.32 7.67 10.64 7.34 12 7 C11.67 6.01 11.34 5.02 11 4 C11.66 4 12.32 4 13 4 C14.38938077 5.96147874 15.7260411 7.96166576 17 10 C15.576875 10.4021875 15.576875 10.4021875 14.125 10.8125 C10.74732727 11.74986588 10.74732727 11.74986588 9 15 C9 14.34 9 13.68 9 13 C6.77049185 11.84395874 4.72662755 10.91735252 2.3125 10.1875 C0 9 0 9 -0.875 6.625 C-0.99364487 4.13345783 -0.78392236 2.35176707 0 0 Z " fill="#DF34D8" transform="translate(164,218)"/>
<path d="M0 0 C2.9375 2 2.9375 2 5 4 C5 4.99 5 5.98 5 7 C2.45317975 5.77752628 0.14523488 4.4575529 -2.25 2.9375 C-7.40671242 -0.00447055 -11.90863735 -0.42536189 -17.6875 0.75 C-23.28634035 2.71953763 -23.28634035 2.71953763 -27 7 C-27.99 6.67 -28.98 6.34 -30 6 C-22.67002139 -4.0447855 -10.77786332 -5.91725829 0 0 Z " fill="#DE1AD5" transform="translate(169,267)"/>
<path d="M0 0 C0.66 0 1.32 0 2 0 C2.36529289 7.42762206 2.36529289 7.42762206 0.890625 9.73828125 C-1.88638477 11.59153364 -4.13134644 11.39751637 -7.4375 11.375 C-8.57058594 11.38273437 -9.70367187 11.39046875 -10.87109375 11.3984375 C-14.20479311 10.97392148 -15.57247615 10.25455532 -18 8 C-17.34 9.32 -16.68 10.64 -16 12 C-7.58047345 12.4257064 -1.1668224 12.73280724 6 8 C7.02080237 7.02124441 8.02681148 6.02611116 9 5 C8.66466224 8.12981912 7.99933599 9.00061159 5.625 11.1875 C2.2365462 13.52714667 -0.20979848 14.12617164 -4.23046875 14.09765625 C-5.03291016 14.09443359 -5.83535156 14.09121094 -6.66210938 14.08789062 C-7.49548828 14.07951172 -8.32886719 14.07113281 -9.1875 14.0625 C-10.4549707 14.05573242 -10.4549707 14.05573242 -11.74804688 14.04882812 C-13.83206155 14.03705403 -15.91603977 14.0191189 -18 14 C-19.76462683 10.91190305 -20 9.76687864 -20 6 C-16.62537285 6.54723683 -14.91765 7.0549 -12 9 C-9.81813053 9.3157994 -9.81813053 9.3157994 -7.5 9.25 C-6.33984375 9.25773437 -6.33984375 9.25773437 -5.15625 9.265625 C-2.70486156 9.12738062 -2.70486156 9.12738062 0 7 C0.25015873 3.41642759 0.25015873 3.41642759 0 0 Z " fill="#FBF8FC" transform="translate(374,255)"/>
<path d="M0 0 C1.39456452 0.00667256 2.78911118 0.01863093 4.18359375 0.03515625 C4.89451172 0.03966797 5.60542969 0.04417969 6.33789062 0.04882812 C8.09899388 0.06064761 9.86005411 0.07858362 11.62109375 0.09765625 C11.64586862 5.13305302 11.66398924 10.16841406 11.67602539 15.20385742 C11.68104474 16.91577777 11.6878616 18.62769386 11.6965332 20.33959961 C11.70870396 22.80453547 11.71434613 25.2694145 11.71875 27.734375 C11.72391129 28.49602463 11.72907257 29.25767426 11.73439026 30.04240417 C11.73479013 33.8561545 11.54700336 37.39081396 10.62109375 41.09765625 C10.29109375 41.09765625 9.96109375 41.09765625 9.62109375 41.09765625 C9.29109375 28.22765625 8.96109375 15.35765625 8.62109375 2.09765625 C0.84457302 1.98999171 0.84457302 1.98999171 -5.37890625 5.09765625 C-4.25559544 0.12299409 -4.25559544 0.12299409 0 0 Z " fill="#DE18D5" transform="translate(320.37890625,223.90234375)"/>
<path d="M0 0 C1.2375 0.495 1.2375 0.495 2.5 1 C4.38101367 7.93081189 4.66079916 13.11868574 2.5 20 C1.74726343 17.3274934 1.5098704 15.46699866 1.5625 12.625 C1.49907918 8.9465922 0.94330507 6.36771184 -0.5 3 C-3.47949852 1.36620684 -3.47949852 1.36620684 -11.5 1 C-11.5 7.93 -11.5 14.86 -11.5 22 C-11.83 22 -12.16 22 -12.5 22 C-14.02154349 14.68150158 -15.4191403 7.38249937 -13.5 0 C-9.2617491 -2.11912545 -4.38187654 -1.25196473 0 0 Z " fill="#FAF9FB" transform="translate(221.5,226)"/>
<path d="M0 0 C-1.27057182 0.47985967 -2.54146848 0.9588593 -3.8125 1.4375 C-4.87404297 1.83775391 -4.87404297 1.83775391 -5.95703125 2.24609375 C-7.62672396 2.86225186 -9.31157704 3.43719235 -11 4 C-10.938125 5.11375 -10.938125 5.11375 -10.875 6.25 C-11.00398134 9.08758952 -11.57051222 10.58773938 -13 13 C-13.66 13 -14.32 13 -15 13 C-15 17.62 -15 22.24 -15 27 C-14.34 27 -13.68 27 -13 27 C-10.89134615 30.47307692 -10.89134615 30.47307692 -11.44140625 33.140625 C-11.71791016 34.06101562 -11.71791016 34.06101562 -12 35 C-16.8122938 28.19404163 -18.25360066 22.28957556 -17 14 C-16.18604987 11.70579638 -15.24527311 9.76240221 -13.9921875 7.6796875 C-12.83704191 5.89646166 -12.83704191 5.89646166 -12.25 3.1875 C-10.4761762 0.08330834 -8.23674008 -0.50072659 -4.97265625 -1.71484375 C-3 -2 -3 -2 0 0 Z " fill="#DE18D5" transform="translate(289,226)"/>
<path d="M0 0 C3.54150893 -0.08761663 7.08273633 -0.14059739 10.625 -0.1875 C11.62402344 -0.21263672 12.62304688 -0.23777344 13.65234375 -0.26367188 C19.16153086 -0.3183989 23.30230575 -0.25706802 28 3 C28.875 5.1875 28.875 5.1875 29 7 C27.68 6.34 26.36 5.68 25 5 C25 4.34 25 3.68 25 3 C22.04491553 2.16628641 19.29890387 1.82110466 16.234375 1.68359375 C15.34492188 1.64169922 14.45546875 1.59980469 13.5390625 1.55664062 C12.61867187 1.51732422 11.69828125 1.47800781 10.75 1.4375 C9.81414062 1.39431641 8.87828125 1.35113281 7.9140625 1.30664062 C5.60951359 1.2008195 3.30486161 1.09873443 1 1 C1.33 1.66 1.66 2.32 2 3 C2.08400529 4.59447464 2.10727467 6.19240545 2.09765625 7.7890625 C2.09443359 8.73007813 2.09121094 9.67109375 2.08789062 10.640625 C2.07951172 11.62546875 2.07113281 12.6103125 2.0625 13.625 C2.05798828 14.61757812 2.05347656 15.61015625 2.04882812 16.6328125 C2.03702145 19.0886016 2.020554 21.54427104 2 24 C1.67 24 1.34 24 1 24 C0.09958689 15.97667603 -0.11547323 8.07029553 0 0 Z " fill="#FDFCFD" transform="translate(200,223)"/>
<path d="M0 0 C3.875 0.875 3.875 0.875 5 2 C5.103125 3.27875 5.20625 4.5575 5.3125 5.875 C5.67846851 9.36707233 5.67846851 9.36707233 8.0625 12 C8.701875 12.33 9.34125 12.66 10 13 C9.01 14.485 9.01 14.485 8 16 C7.60986284 17.9896995 7.26797351 19.99019869 7 22 C5.68 21.67 4.36 21.34 3 21 C3.66 20.67 4.32 20.34 5 20 C5.65555119 17.47266765 5.65555119 17.47266765 6 15 C5.34 15 4.68 15 4 15 C3.67 15.66 3.34 16.32 3 17 C3 13.04 3 9.08 3 5 C2.01 5 1.02 5 0 5 C0 3.35 0 1.7 0 0 Z " fill="#DE1AD5" transform="translate(155,216)"/>
<path d="M0 0 C0.99 0.66 1.98 1.32 3 2 C2.22785156 2.38414062 1.45570313 2.76828125 0.66015625 3.1640625 C-2.47766203 5.32966395 -3.18338825 6.86715478 -4.5625 10.375 C-6.27198918 14.43369286 -7.83729794 17.83729794 -11 21 C-11.66 21 -12.32 21 -13 21 C-12.60612282 17.65204398 -11.92739921 15.8933676 -10 13.0625 C-7.90130878 9.84887908 -7.59117408 7.71595139 -7 4 C-4 2 -4 2 0 2 C0 1.34 0 0.68 0 0 Z " fill="#E23EDB" transform="translate(175,233)"/>
<path d="M0 0 C0.99 2.31 1.98 4.62 3 7 C2.34 7.66 1.68 8.32 1 9 C1 8.01 1 7.02 1 6 C-3.51617599 5.92345464 -7.59085217 5.89771304 -12 7 C-12.33 5.35 -12.66 3.7 -13 2 C-12.01 2.33 -11.02 2.66 -10 3 C-9.34 2.34 -8.68 1.68 -8 1 C-5.29120665 -0.35439668 -2.99066732 -0.06501451 0 0 Z " fill="#F6F0F8" transform="translate(183,228)"/>
<path d="M0 0 C1.22589844 -0.00515625 2.45179688 -0.0103125 3.71484375 -0.015625 C6.81933194 0.23070545 8.56185087 0.44230183 11.0625 2.25 C11.3925 3.24 11.7225 4.23 12.0625 5.25 C7.3125 3.375 7.3125 3.375 5.0625 2.25 C-0.81915736 1.78411718 -0.81915736 1.78411718 -5.9375 4.25 C-6.66715366 6.81282742 -6.66715366 6.81282742 -6.9375 9.25 C-7.9275 8.26 -8.9175 7.27 -9.9375 6.25 C-9.6075 9.22 -9.2775 12.19 -8.9375 15.25 C-11.9375 13.25 -11.9375 13.25 -12.8125 11 C-12.97973714 7.32078289 -11.86425599 5.34657212 -9.9375 2.25 C-6.26994001 -0.19503999 -4.36271863 -0.01831152 0 0 Z " fill="#DE18D5" transform="translate(369.9375,223.75)"/>
<path d="M0 0 C2.5625 1.6875 2.5625 1.6875 4.5625 4.6875 C1.5625 4.6875 1.5625 4.6875 -1.5 3.0625 C-6.25979796 0.90540007 -10.62034692 2.16247164 -15.4375 3.6875 C-16.78647976 4.32190983 -18.12594056 4.97895639 -19.4375 5.6875 C-19.3125 3.875 -19.3125 3.875 -18.4375 1.6875 C-12.63117756 -2.37692571 -6.45308488 -2.46390514 0 0 Z " fill="#DE18D5" transform="translate(164.4375,271.3125)"/>
<path d="M0 0 C0.66 1.32 1.32 2.64 2 4 C-3.9753234 8.6398643 -9.40357387 10.4184472 -17 10 C-20.14065692 9.27837507 -23.04936627 8.28953622 -26 7 C-25.67 5.68 -25.34 4.36 -25 3 C-24.3503125 3.7115625 -24.3503125 3.7115625 -23.6875 4.4375 C-20.04466923 7.81049146 -15.41941538 7.32624536 -10.734375 7.2890625 C-6.94970345 6.88896865 -4.80442711 5.51679356 -2 3 C-1.34 2.01 -0.68 1.02 0 0 Z " fill="#DE18D5" transform="translate(304,258)"/>
<path d="M0 0 C0.66 0 1.32 0 2 0 C2 0.99 2 1.98 2 3 C-4.45587516 7.44738067 -10.86479242 8.91592884 -18.671875 7.5234375 C-23.05435964 6.25335437 -23.05435964 6.25335437 -25 5 C-25.7421875 2.88671875 -25.7421875 2.88671875 -26 1 C-22 3 -22 3 -20.16015625 4.046875 C-16.23610688 5.77828196 -12.1968361 5.54713354 -8 5 C-5.00494954 3.80952131 -2.30707095 2.30707095 0 0 Z " fill="#DE18D5" transform="translate(272,260)"/>
<path d="M0 0 C2.71928517 0.37507382 3.84218661 0.84218661 5.8125 2.8125 C7 5 7 5 6.6875 7.25 C6.460625 7.8275 6.23375 8.405 6 9 C4.576875 8.9690625 4.576875 8.9690625 3.125 8.9375 C0.09333717 8.77448174 0.09333717 8.77448174 -2 10 C-3.04449911 6.86650268 -2.93423645 6.01031744 -2 3 C-1.34 3 -0.68 3 0 3 C0 2.01 0 1.02 0 0 Z " fill="#FAF7FB" transform="translate(129,232)"/>
<path d="M0 0 C2.31 1.98 4.62 3.96 7 6 C7.99 5.34 8.98 4.68 10 4 C10.99 4.99 11.98 5.98 13 7 C12.67 7.99 12.34 8.98 12 10 C9.03 10 6.06 10 3 10 C0.96564469 6.27034861 0 4.33094958 0 0 Z " fill="#F8F2F9" transform="translate(219,259)"/>
<path d="M0 0 C0.66 0.99 1.32 1.98 2 3 C2.99 2.34 3.98 1.68 5 1 C4.04464499 4.07836613 2.99809344 5.00121326 0.25 6.75 C-5.48045173 9.01041273 -11.95998361 8.22618647 -18 8 C-18.66 6.35 -19.32 4.7 -20 3 C-19.47535156 3.32097656 -18.95070313 3.64195312 -18.41015625 3.97265625 C-15.32820732 5.28635571 -12.78143494 5.37282777 -9.4375 5.4375 C-7.73400391 5.49744141 -7.73400391 5.49744141 -5.99609375 5.55859375 C-2.78719072 5.30920621 -2.78719072 5.30920621 -1.09765625 2.47265625 C-0.73542969 1.65667969 -0.37320312 0.84070313 0 0 Z " fill="#DE18D5" transform="translate(376,260)"/>
<path d="M0 0 C0.99 0.804375 1.98 1.60875 3 2.4375 C1.25 6.3125 1.25 6.3125 -1 7.4375 C-0.773125 6.839375 -0.54625 6.24125 -0.3125 5.625 C0.2687116 3.38694942 0.2687116 3.38694942 -1.25 1.75 C-5.0590761 -1.10680707 -9.43249388 -1.05507419 -14 -0.5625 C-18.15150807 1.23019667 -20.35850049 3.81766734 -23 7.4375 C-23.66 7.1075 -24.32 6.7775 -25 6.4375 C-22.01790363 1.46733939 -19.52141316 -1.10536352 -14.1875 -3.3125 C-8.61151612 -3.9497553 -4.52034944 -3.23668023 0 0 Z " fill="#FBF9FB" transform="translate(269,228.5625)"/>
<path d="M0 0 C3.3 0.33 6.6 0.66 10 1 C9.67 1.66 9.34 2.32 9 3 C8.01 3.33 7.02 3.66 6 4 C5.67 4.66 5.34 5.32 5 6 C4.34 5.01 3.68 4.02 3 3 C2.01 2.67 1.02 2.34 0 2 C0.33 2.99 0.66 3.98 1 5 C-2.70736536 6.23578845 -5.18227929 5.62471794 -9 5 C-9.66 5 -10.32 5 -11 5 C-11.33 5.66 -11.66 6.32 -12 7 C-12.99 6.34 -13.98 5.68 -15 5 C-13.5882217 4.46605821 -12.17029756 3.94834896 -10.75 3.4375 C-9.96109375 3.14746094 -9.1721875 2.85742188 -8.359375 2.55859375 C-5.80896548 1.95477163 -4.44677771 2.1526068 -2 3 C-1.34 2.01 -0.68 1.02 0 0 Z " fill="#FCFBFC" transform="translate(155,214)"/>
<path d="M0 0 C0.66 0.33 1.32 0.66 2 1 C1.34 2.32 0.68 3.64 0 5 C-0.66 5 -1.32 5 -2 5 C-1.87625 6.299375 -1.87625 6.299375 -1.75 7.625 C-2.06081363 11.82098405 -3.40624904 13.73928451 -6 17 C-9.23914229 19.15942819 -10.24859733 19.27232978 -14 19.25 C-14.86625 19.25515625 -15.7325 19.2603125 -16.625 19.265625 C-19 19 -19 19 -22 17 C-21.67 16.34 -21.34 15.68 -21 15 C-19.515 15.99 -19.515 15.99 -18 17 C-12.19969497 17.66136597 -12.19969497 17.66136597 -7.1875 15.0625 C-4.84222663 11.77911729 -3.74734763 8.93831724 -2.67578125 5.0859375 C-2 3 -2 3 0 0 Z " fill="#FBF9FB" transform="translate(170,232)"/>
<path d="M0 0 C0.268125 0.556875 0.53625 1.11375 0.8125 1.6875 C1.97576986 4.09293003 1.97576986 4.09293003 3.75 6.4375 C5 9 5 9 4.1875 11.8125 C3.795625 12.534375 3.40375 13.25625 3 14 C2.731875 13.4225 2.46375 12.845 2.1875 12.25 C0.2397957 8.5596129 -1.50166221 6.33222519 -5 4 C-3.35 2.68 -1.7 1.36 0 0 Z " fill="#DE1CD5" transform="translate(134,227)"/>
<path d="M0 0 C2.64 0.33 5.28 0.66 8 1 C8.8125 3.1875 8.8125 3.1875 9 6 C6.6875 8.8125 6.6875 8.8125 4 11 C3.34 11 2.68 11 2 11 C2.57584432 8.61435923 3.22227595 6.33317216 4 4 C3.01 3.67 2.02 3.34 1 3 C0.67 2.01 0.34 1.02 0 0 Z " fill="#DE18D5" transform="translate(129,255)"/>
<path d="M0 0 C1.32 0.33 2.64 0.66 4 1 C3.67 4.63 3.34 8.26 3 12 C-1.88135593 7.72881356 -1.88135593 7.72881356 -2.4375 4.3125 C-2 2 -2 2 0 0 Z M0 4 C1 7 1 7 1 7 Z " fill="#FBF8FB" transform="translate(137,224)"/>
<path d="M0 0 C0 0.66 0 1.32 0 2 C-1.7015625 2.6496875 -1.7015625 2.6496875 -3.4375 3.3125 C-4.613125 3.869375 -5.78875 4.42625 -7 5 C-7.33 5.99 -7.66 6.98 -8 8 C-7.01 8.33 -6.02 8.66 -5 9 C-5.33 9.99 -5.66 10.98 -6 12 C-9.67230705 8.92000054 -10.56802365 6.7517398 -11 2 C-3.375 0 -3.375 0 0 0 Z " fill="#DE18D5" transform="translate(187,254)"/>
<path d="M0 0 C0.66 0 1.32 0 2 0 C2 1.65 2 3.3 2 5 C1.01 5.33 0.02 5.66 -1 6 C-1 6.66 -1 7.32 -1 8 C-2.98 7.34 -4.96 6.68 -7 6 C-7 5.01 -7 4.02 -7 3 C-5.35 3 -3.7 3 -2 3 C-1.67 2.34 -1.34 1.68 -1 1 C-0.67 0.67 -0.34 0.34 0 0 Z " fill="#FAF6FB" transform="translate(159,231)"/>
<path d="M0 0 C7.1191234 -0.8089913 12.62116486 2.06720223 19 5 C17.68 6.32 16.36 7.64 15 9 C14.071875 7.8553125 14.071875 7.8553125 13.125 6.6875 C9.53003505 3.01959373 4.86001881 2.16074236 0 1 C0 0.67 0 0.34 0 0 Z " fill="#DE18D5" transform="translate(257,224)"/>
<path d="M0 0 C0 0.66 0 1.32 0 2 C-1.65 2.66 -3.3 3.32 -5 4 C-4.34414811 7.60992379 -4.34414811 7.60992379 -3 11 C-6.65316671 9.75023244 -7.78065836 9.32901247 -10 6 C-9.625 3.8125 -9.625 3.8125 -9 2 C-2.25 0 -2.25 0 0 0 Z " fill="#F5E0F5" transform="translate(222,248)"/>
<path d="M0 0 C2 2 2 2 2 6 C2.66 6 3.32 6 4 6 C4.33 5.34 4.66 4.68 5 4 C5.19551338 5.60320974 5.38111983 7.20762986 5.5625 8.8125 C5.66691406 9.70582031 5.77132812 10.59914062 5.87890625 11.51953125 C6 14 6 14 5 17 C4.34 16.67 3.68 16.34 3 16 C3.20625 15.236875 3.4125 14.47375 3.625 13.6875 C4.33391203 10.78114056 4.33391203 10.78114056 2 8 C1.01 8.495 1.01 8.495 0 9 C0.061875 8.236875 0.12375 7.47375 0.1875 6.6875 C0.25898085 3.95474688 0.25898085 3.95474688 -1.5 2.1875 C-1.995 1.795625 -2.49 1.40375 -3 1 C-2.01 0.67 -1.02 0.34 0 0 Z " fill="#DE18D5" transform="translate(140,221)"/>
<path d="M0 0 C1.98 0.495 1.98 0.495 4 1 C4.33 3.64 4.66 6.28 5 9 C3.68 9.33 2.36 9.66 1 10 C-1.56687367 6.1496895 -0.83288724 4.41430237 0 0 Z " fill="#DE22D6" transform="translate(164,218)"/>
<path d="M0 0 C2.3125 0.1875 2.3125 0.1875 5 1 C6.8125 3.5625 6.8125 3.5625 8 6 C4.60535554 8.08901197 1.95158471 8.34361606 -2 8 C-2.66 7.34 -3.32 6.68 -4 6 C-1.36 6 1.28 6 4 6 C3.67 5.01 3.34 4.02 3 3 C1.35 3 -0.3 3 -2 3 C-1.34 2.01 -0.68 1.02 0 0 Z " fill="#FCFBFC" transform="translate(134,244)"/>
<path d="M0 0 C0.66 0.66 1.32 1.32 2 2 C1.37351562 2.17015625 0.74703125 2.3403125 0.1015625 2.515625 C-1.12433594 2.87914062 -1.12433594 2.87914062 -2.375 3.25 C-3.18710938 3.48203125 -3.99921875 3.7140625 -4.8359375 3.953125 C-7.49968494 5.24172484 -7.89036764 6.32443787 -9 9 C-9.66 9.66 -10.32 10.32 -11 11 C-11.33 9.35 -11.66 7.7 -12 6 C-8.0949151 2.44992282 -5.02265357 1.18180084 0 0 Z " fill="#DE18D5" transform="translate(255,224)"/>
<path d="M0 0 C0.66 0 1.32 0 2 0 C2.99 2.31 3.98 4.62 5 7 C4.34 7.66 3.68 8.32 3 9 C3 8.01 3 7.02 3 6 C1.824375 6.0928125 1.824375 6.0928125 0.625 6.1875 C-0.24125 6.125625 -1.1075 6.06375 -2 6 C-2.66 5.01 -3.32 4.02 -4 3 C-3.01 2.67 -2.02 2.34 -1 2 C-0.67 1.34 -0.34 0.68 0 0 Z " fill="#DE2BD6" transform="translate(181,228)"/>
<path d="M0 0 C1.22589844 0.15275391 1.22589844 0.15275391 2.4765625 0.30859375 C3.41628906 0.43427734 3.41628906 0.43427734 4.375 0.5625 C4.705 1.5525 5.035 2.5425 5.375 3.5625 C1.415 3.2325 -2.545 2.9025 -6.625 2.5625 C-6.625 1.9025 -6.625 1.2425 -6.625 0.5625 C-4.10446405 -0.69776798 -2.7707902 -0.35624445 0 0 Z " fill="#F2B7EF" transform="translate(150.625,218.4375)"/>
<path d="M0 0 C1.98 0.66 3.96 1.32 6 2 C5.67 2.5775 5.34 3.155 5 3.75 C3.72924102 6.19883862 3.72924102 6.19883862 4 10 C3.01 9.67 2.02 9.34 1 9 C1.04125 8.05125 1.0825 7.1025 1.125 6.125 C1.34973818 2.89755144 1.34973818 2.89755144 -1 1 C-0.67 0.67 -0.34 0.34 0 0 Z " fill="#FDFBFD" transform="translate(128,257)"/>
<path d="M0 0 C2 3 2 3 2 5 C2.66 5 3.32 5 4 5 C4 5.66 4 6.32 4 7 C2.02 7.33 0.04 7.66 -2 8 C-3.03864166 4.88407501 -3.09036928 3.9737344 -2 1 C-1.34 0.67 -0.68 0.34 0 0 Z " fill="#DE26D6" transform="translate(129,234)"/>
<path d="M0 0 C4.97093824 0.41153737 9.44508386 0.79600832 14 3 C13.67 4.32 13.34 5.64 13 7 C12.154375 6.38125 11.30875 5.7625 10.4375 5.125 C7.08627655 2.86952264 3.91143146 1.93874355 0 1 C0 0.67 0 0.34 0 0 Z " fill="#DE18D5" transform="translate(289,224)"/>
<path d="M0 0 C2.41734542 -0.08117951 4.83194949 -0.14056926 7.25 -0.1875 C7.93191406 -0.21263672 8.61382812 -0.23777344 9.31640625 -0.26367188 C12.59199289 -0.31137459 14.65348556 -0.21085076 17.484375 1.51171875 C17.98453125 2.00285156 18.4846875 2.49398437 19 3 C18.01 3.33 17.02 3.66 16 4 C15.38382813 3.690625 14.76765625 3.38125 14.1328125 3.0625 C11.51547222 1.75862353 9.77533018 1.86147677 6.875 2 C4.2421875 2.125 4.2421875 2.125 2 2 C1.34 1.34 0.68 0.68 0 0 Z " fill="#DE18D5" transform="translate(206,224)"/>
<path d="M0 0 C3 2 3 2 3.73046875 4.1640625 C3.88128906 4.97617188 4.03210938 5.78828125 4.1875 6.625 C4.34605469 7.44226563 4.50460937 8.25953125 4.66796875 9.1015625 C4.83232422 10.04128906 4.83232422 10.04128906 5 11 C4.34 11 3.68 11 3 11 C0 4.5 0 4.5 0 0 Z " fill="#F0AAEE" transform="translate(303,231)"/>
<path d="M0 0 C0.66 0.33 1.32 0.66 2 1 C1.67 2.65 1.34 4.3 1 6 C-0.98 6 -2.96 6 -5 6 C-3.63016497 2.83884224 -3.0109362 2.0072908 0 0 Z " fill="#F6DBF5" transform="translate(186,245)"/>
<path d="M0 0 C-0.66 0.66 -1.32 1.32 -2 2 C-2.6425235 4.06874034 -2.6425235 4.06874034 -3 6 C-4.9375 5.1875 -4.9375 5.1875 -7 4 C-7.33 3.01 -7.66 2.02 -8 1 C-2.25 -1.125 -2.25 -1.125 0 0 Z " fill="#F3BAF0" transform="translate(133,246)"/>
<path d="M0 0 C2 1.375 2 1.375 4 3 C4 3.66 4 4.32 4 5 C1.03 5 -1.94 5 -5 5 C-4.67 4.34 -4.34 3.68 -4 3 C-3.01 3 -2.02 3 -1 3 C-0.67 2.01 -0.34 1.02 0 0 Z " fill="#E989E5" transform="translate(228,263)"/>
<path d="M0 0 C0.33 0.66 0.66 1.32 1 2 C1.66 2.33 2.32 2.66 3 3 C1.35 4.32 -0.3 5.64 -2 7 C-3.32 6.01 -4.64 5.02 -6 4 C-4.35 3.67 -2.7 3.34 -1 3 C-0.67 2.01 -0.34 1.02 0 0 Z " fill="#DE18D5" transform="translate(223,247)"/>
<path d="M0 0 C0.33 0.66 0.66 1.32 1 2 C0.05988318 3.70116376 -0.94895617 5.36504293 -2 7 C-2.68096422 8.32608822 -3.35330586 9.65686601 -4 11 C-4.35233161 5.62694301 -4.35233161 5.62694301 -4 3 C-2 1 -2 1 0 0 Z " fill="#E766E2" transform="translate(271,233)"/>
<path d="M0 0 C0.93065133 2.60582371 1.14917407 3.64198224 0.0625 6.25 C-0.4634375 7.11625 -0.4634375 7.11625 -1 8 C-1.66 8 -2.32 8 -3 8 C-2.25 2.25 -2.25 2.25 0 0 Z " fill="#F1BDEF" transform="translate(307,250)"/>
<path d="M0 0 C3.40424844 1.13474948 4.21653709 1.96811304 6 5 C5.67 5.99 5.34 6.98 5 8 C5 7.34 5 6.68 5 6 C4.360625 5.7525 3.72125 5.505 3.0625 5.25 C1 4 1 4 0.25 1.875 C0.1675 1.25625 0.085 0.6375 0 0 Z " fill="#EA7CE5" transform="translate(371,249)"/>
<path d="M0 0 C1.31625194 2.63250388 0.74813658 3.80179056 0.0625 6.625 C-0.13214844 7.44226563 -0.32679688 8.25953125 -0.52734375 9.1015625 C-0.68332031 9.72804687 -0.83929688 10.35453125 -1 11 C-1.33 11 -1.66 11 -2 11 C-2.33 7.7 -2.66 4.4 -3 1 C-2.01 0.67 -1.02 0.34 0 0 Z " fill="#FBFAFC" transform="translate(244,237)"/>
<path d="M0 0 C1.98 0 3.96 0 6 0 C5.01 0.33 4.02 0.66 3 1 C3 1.66 3 2.32 3 3 C3.99 3.33 4.98 3.66 6 4 C5.01 4.495 5.01 4.495 4 5 C1.875 4.0625 1.875 4.0625 0 3 C0 2.01 0 1.02 0 0 Z " fill="#DE18D5" transform="translate(152,234)"/>
<path d="M0 0 C2.4375 0.75 2.4375 0.75 5 2 C5.8125 4.125 5.8125 4.125 6 6 C4.68 5.34 3.36 4.68 2 4 C2 3.34 2 2.68 2 2 C1.34 2 0.68 2 0 2 C0 1.34 0 0.68 0 0 Z " fill="#F6F6F7" transform="translate(223,224)"/>
</svg>
